# xmcd
#
# Track frame offsets:
#	150
#	14449
#	27982
#	43202
#	63296
#	78026
#	92489
#	107042
#	127487
#	145242
#	164492
#	181204
#	197909
#	213019
#
# Disc length: 3035 seconds
#
# Revision: 1
# Processed by: cddbd v1.5.2PL0 Copyright (c) Steve Scherf et al.
# Submitted via: audiograbber 1.83.01
#
DISCID=c10bd90e
DTITLE=Various Artist - CDX 024
DYEAR=1992
DGENRE=Country
TTITLE0=Sammy Kershaw - Don't Go Near The Water
TTITLE1=Rich Grissom - I Don't Do Floors
TTITLE2=Mark Collie - It Don't Take A Lot
TTITLE3=Brooks and Dunn - Neon Moon
TTITLE4=Billy Burnette - Nothin' To Do (And All Night To Do It)
TTITLE5=Clinton Gregory - Play, Ruby, Play
TTITLE6=Lynyrd Skynyrd - Pure And Simple
TTITLE7=Wynonna - She Is His Only Need
TTITLE8=Tanya Tucker - Some Kind Of Trouble
TTITLE9=Exile - Somebody's Telling Her Lies
TTITLE10=Buzzin Cousins - Sweet Suzanne
TTITLE11=Dawn Sears - Tell Me I'm Crazy
TTITLE12=Donna Reeves - The More I Learn (The Less I Understand About Love)
TTITLE13=Dixiana - Waitin' For The Deal To Go Down
EXTD=
EXTT0=
EXTT1=
EXTT2=
EXTT3=
EXTT4=
EXTT5=
EXTT6=
EXTT7=
EXTT8=
EXTT9=
EXTT10=
EXTT11=
EXTT12=
EXTT13=
PLAYORDER=
